# xmcd CD database file
#
# Track frame offsets:
#	150
#	8070
#	23285
#	33890
#	49202
#	65812
#	98437
#	114272
#	137682
#	153709
#	183360
#
# Disc length: 2641 seconds
#
# Revision: 1
# Processed by: cddbd v1.5.2PL0 Copyright (c) Steve Scherf et al.
# Submitted via: CDex 1.51
#
DISCID=7f0a4f0b
DTITLE=Lightnin' Hopkins - Brownie McGhee and Sonny Terry - Coffee House Blues
DYEAR=1900
DGENRE=Blues
TTITLE0=Introduction - Lightnin' Hopkins
TTITLE1=Big Car Blues - Lightnin' Hopkins
TTITLE2=Coffee House Blues - Lightnin' Hopkins
TTITLE3=Stool Pigeon Blues - Lightnin' Hopkins
TTITLE4=Ball Of Twine - Lightnin' Hopkins
TTITLE5=Blues For Gamblers - Lightnin' Hopkins with Brownie McGhee and Sonny Terry
TTITLE6=Walk On - Brownie McGhee and Sonny Terry
TTITLE7=Blues For The Lowlands - Brownie McGhee and Sonny Terry
TTITLE8=Down By The Riverside - Brownie McGhee and Sonny Terry
TTITLE9=Blowin' The Fuses - Brownie McGhee and Sonny Terry
TTITLE10=Right On That Shore - Brownie McGhee and Sonny Terry with Lightnin' Hopkins
EXTD=
EXTT0=
EXTT1=
EXTT2=
EXTT3=
EXTT4=
EXTT5=
EXTT6=
EXTT7=
EXTT8=
EXTT9=
EXTT10=
PLAYORDER=
